<?xml version="1.0" encoding="utf-8"?>
<!-- Generator: Adobe Illustrator 18.1.1, SVG Export Plug-In . SVG Version: 6.00 Build 0)  -->
<svg version="1.1" id="Layer_1" xmlns="http://www.w3.org/2000/svg" xmlns:xlink="http://www.w3.org/1999/xlink" x="0px" y="0px"
	 viewBox="0 0 147.9 18" enable-background="new 0 0 147.9 18" xml:space="preserve">
<g>
	<path fill="#FFFFFF" d="M18.8,1v16.3h-2.5V1H18.8z"/>
	<path fill="#FFFFFF" d="M28.6,6.9L32,1.1h2.8l-4.8,8l5.1,8.3h-2.8l-3.8-6.2L25,17.4h-2.8l5-8.3l-5-8h2.9L28.6,6.9z"/>
	<path fill="#FFFFFF" d="M52.4,3.4c1.7-1.7,4-2.6,6.4-2.6c2.8,0,4.8,1.3,5.6,1.9c2,1.5,3.2,4,3.2,6.5c0,0.6-0.1,1.8-0.7,3.2
		c-1.4,3.2-4.6,5.2-8.2,5.2c-2.9,0-4.9-1.3-5.7-2c-2-1.6-3.2-4.1-3.1-6.7C50.1,6.9,50.9,4.9,52.4,3.4z M53.8,13
		c1.2,1.5,3.1,2.3,5,2.3c0.7,0,2.4-0.1,4-1.3c1.5-1.1,2.5-2.9,2.5-4.8c0-1.2-0.4-2.1-0.5-2.4c-1-2.3-3.4-3.6-5.9-3.6
		c-1.4,0-2.8,0.4-3.9,1.3c-0.7,0.5-2.3,2-2.4,4.5C52.4,10.3,52.8,11.8,53.8,13z"/>
	<path fill="#FFFFFF" d="M80.6,1.1v2.3h-5.9v4h5.8v2.2h-5.9v7.8h-2.4V1.1H80.6z"/>
	<path fill="#FFFFFF" d="M97.6,3.4c1.7-1.7,4-2.6,6.4-2.6c2.8,0,4.8,1.3,5.6,1.9c2,1.5,3.2,4,3.2,6.5c0,0.6-0.1,1.8-0.7,3.2
		c-1.4,3.2-4.6,5.2-8.2,5.2c-2.9,0-4.9-1.3-5.7-2c-2-1.6-3.2-4.1-3.1-6.7C95.3,6.9,96.2,4.9,97.6,3.4z M99,13c1.2,1.5,3.1,2.3,5,2.3
		c0.7,0,2.4-0.1,4-1.3c1.5-1.1,2.5-2.9,2.5-4.8c0-1.2-0.4-2.1-0.5-2.4c-1-2.3-3.4-3.6-5.9-3.6c-1.4,0-2.8,0.4-3.9,1.3
		c-0.7,0.5-2.3,2-2.4,4.5C97.6,10.3,98.1,11.8,99,13z"/>
	<path fill="#FFFFFF" d="M129.9,1.1h2.5V18c-1.9-1.9-3.8-3.8-5.8-5.6c-1.2-1.1-2.3-2.2-3.4-3.4c-1.2-1.2-2.3-2.4-3.4-3.6
		c0,0.8,0.1,1.6,0.1,2.3c0,0.7,0,1.4,0,2.1v7.5h-2.5V0c2.4,2.3,4.8,4.5,7.1,6.8c1.9,1.8,3.7,3.7,5.6,5.6c0-0.5-0.1-1-0.1-1.5
		c0-0.5,0-0.9,0-1.4L129.9,1.1L129.9,1.1z"/>
	<path fill="#FFFFFF" d="M147.9,1.1v2.3h-6.8v4h6.8v2.2h-6.8v5.6h6.8v2.2h-9.2V1.1H147.9z"/>
	<path fill="#FFFFFF" d="M9.8,8.7C9.4,8.3,9,8.1,8.5,7.9l-3-1.5C5.3,6.3,4.2,5.9,4.2,4.8c0-0.4,0.2-1.4,1.2-1.8
		c0.3-0.1,0.6-0.2,1-0.2c0.7,0,1.5,0.2,2.3,1.1C8.9,4.1,9,4.3,9.2,4.5l2.1-1.1c-0.5-0.6-0.8-1.1-1.5-1.5c-1.3-1-2.7-1.1-3.3-1.1
		c-2,0-3.2,1-3.7,1.5c-0.9,1-1,2.2-1,2.7c0,0.6,0.2,1.7,1.1,2.6c-1.3,0.7-2.4,2-2.7,3C0,11.2,0,11.8,0,12.1c0,2.2,1.4,4.2,3.4,5
		c1,0.4,1.9,0.4,2.3,0.4c2.4,0,3.8-1.3,4.4-2c1.3-1.4,1.4-2.9,1.4-3.6C11.6,11.3,11.4,9.9,9.8,8.7z M7.2,15.2
		c-0.2,0.1-0.7,0.3-1.4,0.3c-1.5,0-2.8-0.9-3.3-2.3c-0.2-0.4-0.2-0.9-0.2-1.4C2.4,10.3,3.6,9.1,5,8.8c0.7,0.3,1.5,0.6,2.3,1
		c1.1,0.5,2,1.3,2,2.5C9.2,13.5,8.4,14.7,7.2,15.2z"/>
</g>
</svg>
