<?xml version="1.0" encoding="utf-8"?>
<!-- Generator: Adobe Illustrator 18.1.1, SVG Export Plug-In . SVG Version: 6.00 Build 0)  -->
<svg version="1.1" id="Layer_1" xmlns="http://www.w3.org/2000/svg" xmlns:xlink="http://www.w3.org/1999/xlink" x="0px" y="0px"
	 viewBox="0.2 6.8 13.5 13.5" enable-background="new 0.2 6.8 13.5 13.5" xml:space="preserve">
<path d="M0.5,20.3c-0.1,0-0.2-0.1-0.2-0.2c0,0,0,0,0-0.1l1-4.3h0c0,0,0-0.1,0.1-0.1h0L8,8.8l3.7,3.7L5,19.3c0,0-0.1,0-0.1,0.1
	L0.5,20.3L0.5,20.3C0.5,20.3,0.5,20.3,0.5,20.3z M4.6,17.4H3.4c-0.1,0-0.2-0.1-0.2-0.2v-1.2H1.6l-0.8,3.8l3.8-0.8L4.6,17.4L4.6,17.4
	z M13.8,10.4c0,0.1,0,0.1-0.1,0.2L12,12.2L8.3,8.5L10,6.9c0,0,0.1-0.1,0.2-0.1c0.1,0,0.1,0,0.2,0.1l3.4,3.4
	C13.7,10.3,13.8,10.3,13.8,10.4z"/>
</svg>
