<?xml version="1.0" encoding="utf-8"?>
<!-- Generator: Adobe Illustrator 18.1.1, SVG Export Plug-In . SVG Version: 6.00 Build 0)  -->
<svg version="1.1" id="Layer_1" xmlns="http://www.w3.org/2000/svg" xmlns:xlink="http://www.w3.org/1999/xlink" x="0px" y="0px"
	 viewBox="0.3 7.3 13.5 13.5" enable-background="new 0.3 7.3 13.5 13.5" xml:space="preserve">
<path d="M13.7,18.2c0,0.1,0,0.2-0.1,0.2l-2.3,2.3c-0.1,0.1-0.1,0.1-0.2,0.1c-0.1,0-0.2,0-0.2-0.1L7,16.7l-3.9,3.9
	c-0.1,0.1-0.1,0.1-0.2,0.1c-0.1,0-0.2,0-0.2-0.1l-2.3-2.3c-0.1-0.1-0.1-0.1-0.1-0.2c0-0.1,0-0.2,0.1-0.2L4.3,14l-3.9-3.9
	C0.3,10,0.3,9.9,0.3,9.8c0-0.1,0-0.2,0.1-0.2l2.3-2.3c0.1-0.1,0.1-0.1,0.2-0.1c0.1,0,0.2,0,0.2,0.1L7,11.3l3.9-3.9
	c0.1-0.1,0.1-0.1,0.2-0.1s0.2,0,0.2,0.1l2.3,2.3c0.1,0.1,0.1,0.1,0.1,0.2s0,0.2-0.1,0.2L9.7,14l3.9,3.9C13.7,18,13.7,18.1,13.7,18.2
	z"/>
</svg>
