<?xml version="1.0" encoding="utf-8"?>
<!-- Generator: Adobe Illustrator 18.1.1, SVG Export Plug-In . SVG Version: 6.00 Build 0)  -->
<svg version="1.1" id="Layer_1" xmlns="http://www.w3.org/2000/svg" xmlns:xlink="http://www.w3.org/1999/xlink" x="0px" y="0px"
	 viewBox="0 0 200 20" enable-background="new 0 0 200 20" xml:space="preserve">
<g>
	<path fill="#FFFFFF" d="M19.228,2.008v15.77h-2.423V2.008H19.228z"/>
	<path fill="#FFFFFF" d="M28.757,7.698l3.309-5.6h2.749l-4.66,7.728l4.916,8.064h-2.679l-3.658-5.981l-3.519,5.936h-2.703
		l4.87-8.042l-4.846-7.728h2.796L28.757,7.698z"/>
	<path fill="#FFFFFF" d="M51.782,4.292c1.607-1.635,3.891-2.531,6.221-2.531c2.749,0,4.683,1.254,5.452,1.836
		c1.957,1.501,3.146,3.875,3.146,6.339c0,0.538-0.07,1.725-0.676,3.069c-1.375,3.136-4.474,5.018-7.922,5.018
		c-2.773,0-4.753-1.299-5.522-1.904c-1.98-1.545-3.099-3.942-3.029-6.451C49.522,7.698,50.361,5.726,51.782,4.292z M53.133,13.566
		c1.165,1.411,3.006,2.24,4.87,2.24c0.699,0,2.33-0.112,3.844-1.232c1.468-1.098,2.376-2.822,2.376-4.637
		c0-1.12-0.349-2.016-0.512-2.375c-1.002-2.195-3.262-3.517-5.708-3.517c-1.375,0-2.75,0.426-3.821,1.232
		c-0.676,0.493-2.237,1.949-2.354,4.346C51.759,11.013,52.224,12.469,53.133,13.566z"/>
	<path fill="#FFFFFF" d="M79.132,2.03v2.218h-5.685v3.875h5.662v2.105h-5.686v7.594h-2.353V2.03H79.132z"/>
	<path fill="#FFFFFF" d="M95.658,4.292c1.607-1.635,3.891-2.531,6.221-2.531c2.749,0,4.683,1.254,5.452,1.836
		c1.957,1.501,3.146,3.875,3.146,6.339c0,0.538-0.07,1.725-0.676,3.069c-1.375,3.136-4.474,5.018-7.922,5.018
		c-2.773,0-4.753-1.299-5.522-1.904c-1.98-1.545-3.099-3.942-3.029-6.451C93.397,7.698,94.236,5.726,95.658,4.292z M97.009,13.566
		c1.165,1.411,3.006,2.24,4.87,2.24c0.699,0,2.33-0.112,3.844-1.232c1.468-1.098,2.376-2.822,2.376-4.637
		c0-1.12-0.349-2.016-0.512-2.375c-1.002-2.195-3.262-3.517-5.708-3.517c-1.375,0-2.75,0.426-3.821,1.232
		c-0.676,0.493-2.237,1.949-2.354,4.346C95.634,11.013,96.1,12.469,97.009,13.566z"/>
	<path fill="#FFFFFF" d="M126.922,2.075h2.4V18.45c-1.864-1.837-3.728-3.651-5.615-5.466c-1.119-1.075-2.213-2.15-3.309-3.248
		c-1.142-1.143-2.237-2.307-3.332-3.494c0.046,0.761,0.117,1.523,0.14,2.262c0.023,0.672,0.023,1.344,0.047,2.016v7.302h-2.423V1
		c2.307,2.195,4.613,4.39,6.874,6.608c1.817,1.792,3.611,3.606,5.382,5.398c-0.046-0.493-0.117-1.008-0.117-1.501
		c-0.023-0.448-0.023-0.874-0.046-1.321V2.075z"/>
	<path fill="#FFFFFF" d="M144.416,2.053v2.218h-6.617v3.83h6.571v2.128h-6.594v5.421h6.547v2.173h-8.9V2.053H144.416z"/>
	<path fill="#FFFFFF" d="M10.503,9.388c-0.408-0.305-0.771-0.501-1.225-0.741L6.352,7.229C6.126,7.12,5.059,6.684,5.059,5.615
		c0-0.349,0.181-1.33,1.202-1.766c0.318-0.131,0.613-0.174,0.953-0.196c0.635,0,1.406,0.153,2.223,1.09
		C9.595,4.939,9.755,5.136,9.89,5.332l2.019-1.112c-0.454-0.567-0.816-1.025-1.406-1.461C9.233,1.799,7.872,1.69,7.282,1.69
		c-1.928,0-3.084,0.937-3.561,1.461c-0.885,0.96-0.998,2.115-0.998,2.573c0,0.61,0.174,1.612,1.054,2.521
		c-1.227,0.651-2.289,1.893-2.573,2.912C1.023,11.876,1,12.465,1,12.77c0,2.115,1.315,4.056,3.334,4.885
		c0.998,0.393,1.837,0.436,2.268,0.436c2.313,0,3.719-1.287,4.264-1.897c1.216-1.342,1.358-2.789,1.36-3.472
		C12.226,11.98,12.044,10.565,10.503,9.388z M7.963,15.736c-0.204,0.088-0.703,0.262-1.361,0.262
		c-1.497,0.022-2.744-0.851-3.244-2.268C3.2,13.294,3.155,12.857,3.2,12.378c0.136-1.418,1.257-2.526,2.67-2.822
		c0.727,0.302,1.478,0.555,2.183,0.923c1.018,0.532,1.924,1.245,1.962,2.393C9.955,14.103,9.142,15.253,7.963,15.736z"/>
</g>
<g>
	<rect x="177.577" y="15.649" fill="#F4E23B" width="21.935" height="2.173"/>
	<rect x="177.577" y="8.101" fill="#F4E23B" width="22.117" height="2.128"/>
	<rect x="177.577" y="2.053" fill="#F4E23B" width="22.296" height="2.218"/>
</g>
</svg>
