<?xml version="1.0" encoding="utf-8"?>
<!-- Generator: Adobe Illustrator 18.1.1, SVG Export Plug-In . SVG Version: 6.00 Build 0)  -->
<svg version="1.1" id="Layer_1" xmlns="http://www.w3.org/2000/svg" xmlns:xlink="http://www.w3.org/1999/xlink" x="0px" y="0px"
	 viewBox="0 0 25.242 20" enable-background="new 0 0 25.242 20" xml:space="preserve">
<path d="M6.147,15.881c-0.138,0-0.243-0.112-0.243-0.243c0-0.02,0.007-0.033,0.007-0.052l0.958-4.316h0.007
	c0.007-0.046,0.033-0.085,0.066-0.118H6.934l6.664-6.671l3.699,3.699l-6.664,6.671c-0.033,0.026-0.072,0.046-0.118,0.059L6.2,15.875
	l-0.007-0.007C6.18,15.875,6.16,15.881,6.147,15.881z M10.22,13.002h-1.2c-0.131,0-0.236-0.112-0.236-0.243v-1.2H7.295l-0.833,3.765
	l3.759-0.84V13.002z M19.338,6.042c0,0.066-0.026,0.125-0.072,0.171L17.639,7.84L13.94,4.147l1.633-1.633
	c0.039-0.039,0.098-0.066,0.164-0.066c0.072,0,0.131,0.026,0.171,0.066l3.358,3.358C19.312,5.918,19.338,5.977,19.338,6.042z"/>
</svg>
