<?xml version="1.0" encoding="utf-8"?>
<!-- Generator: Adobe Illustrator 18.1.1, SVG Export Plug-In . SVG Version: 6.00 Build 0)  -->
<svg version="1.1" id="Layer_1" xmlns="http://www.w3.org/2000/svg" xmlns:xlink="http://www.w3.org/1999/xlink" x="0px" y="0px"
	 viewBox="0 0 25.242 20" enable-background="new 0 0 25.242 20" xml:space="preserve">
<path d="M21.621,15.556c0,0.119-0.048,0.214-0.119,0.309l-3.016,3.016C18.391,18.952,18.297,19,18.178,19
	c-0.119,0-0.214-0.048-0.308-0.119l-5.248-5.248l-5.248,5.248C7.279,18.952,7.183,19,7.065,19c-0.119,0-0.214-0.048-0.309-0.119
	L3.74,15.865c-0.071-0.095-0.119-0.19-0.119-0.309c0-0.119,0.048-0.214,0.119-0.308L8.988,10L3.74,4.752
	c-0.071-0.094-0.119-0.19-0.119-0.308c0-0.119,0.048-0.214,0.119-0.309l3.016-3.016C6.851,1.048,6.945,1,7.065,1
	c0.119,0,0.214,0.048,0.308,0.119l5.248,5.248l5.248-5.248C17.964,1.048,18.059,1,18.178,1c0.119,0,0.214,0.048,0.309,0.119
	l3.016,3.016c0.071,0.095,0.119,0.19,0.119,0.309c0,0.119-0.048,0.214-0.119,0.308L16.254,10l5.248,5.248
	C21.574,15.343,21.621,15.438,21.621,15.556z"/>
</svg>
